<svg xmlns="http://www.w3.org/2000/svg" viewBox="0 0 246.424 80.234">
  <defs>
    <style>
      .cls-1 {
        fill: #bd945a;
      }
    </style>
  </defs>
  <g id="Group_63" data-name="Group 63" transform="translate(-35.295 -29)">
    <path id="Path_13" data-name="Path 13" class="cls-1" d="M209.924,52.69c-4.7-.151-9.315-2.788-9.315-8.461V17.451h6.041v-.81H189.36v.81h5.4V43.386c0,8.029,5.922,10.093,15.129,10.147h.735c9.185,0,15.129-2.161,15.129-10.147V17.451h5.4V16.63h-17.29v.81h6.041V44.272c0,5.673-4.6,8.31-9.3,8.461h-.692" transform="translate(50.561 30.284)"/>
    <path id="Path_14" data-name="Path 14" class="cls-1" d="M103.3,4.869s-2.529-3.988-3.166-2.291S82.192,52.946,73.256,63.385c0,0-12.773-33.8-2.01-49.46S115.324,2.578,115.324,2.578,97.4,16.346,84.937,15.7s-5.4,7.2,1.9,3.977,18.479-12.352,42.144-.281c13.648,6.992-4.042,20.878-21.613,31.727S31.543,92.249,5.209,72.668c0,0-2.161-3.242,4.733-6.549s1.275-3.707,1.275-3.707S-8.407,70.107,4.258,76.655,84,85.192,128.94,44.237c0,0,33.5-32.765-22.8-31.338,0,0,15.194-5.987,15.518-8.829S110.775-3.041,85.25,3.5c-25.06,6.484-26.032,42.75-12.427,64.967,0,0,.832,1.815,3.047.4,0,0,25.2-47.991,27.426-63.941" transform="translate(35.294 28.947)"/>
    <path id="Path_15" data-name="Path 15" class="cls-1" d="M137.267,17.371H132.08V16.55h16.177v.821h-5.176v34.45h5.176v.821H132.08v-.821h5.187Z" transform="translate(45.943 30.277)"/>
    <path id="Path_16" data-name="Path 16" class="cls-1" d="M177.271,17.371h-9.142c-11.606,0-11.779,4.052-11.779,9.12h-.919V16.55h29.1L160.121,51.822H166.9c7.564,0,17.042-.259,17.042-7.391V42.388h.919V52.7H153Z" transform="translate(47.63 30.277)"/>
  </g>
</svg>
