<svg id="Asset_4" data-name="Asset 4" xmlns="http://www.w3.org/2000/svg" viewBox="0 0 300 122.895">
  <defs>
    <style>
      .cls-1 {
        fill: #fff;
      }
    </style>
  </defs>
  <g id="Bizu_Logos" data-name="Bizu Logos">
    <rect id="Rectangle_88" data-name="Rectangle 88" width="300" height="122.895"/>
    <g id="Group_204" data-name="Group 204" transform="translate(4)">
      <path id="Path_136" data-name="Path 136" class="cls-1" d="M156.862,36.24h-7.414c-9.386,0-9.52,3.263-9.52,7.3h-.743V35.51h23.52l-19.673,28.6h5.478c6.087,0,13.769-.207,13.769-5.977V56.461h.743v8.278H137.25Z" transform="translate(29.836 7.719)"/>
      <path id="Path_137" data-name="Path 137" class="cls-1" d="M179.175,64.789c-3.8-.11-7.56-2.24-7.56-6.793V36.29h4.87v-.67H162.57v.67h4.37V57.265c0,6.489,4.784,8.156,12.174,8.193h.6c7.426,0,12.174-1.7,12.174-8.193V36.29h4.37v-.67H182.377v.67h4.87V58c0,4.577-3.725,6.708-7.523,6.83a4.3,4.3,0,0,1-.56,0" transform="translate(35.34 7.743)"/>
      <path id="Path_138" data-name="Path 138" class="cls-1" d="M111.944,27.876s-2.033-3.2-2.569-1.838S94.985,66.492,87.791,74.928c0,0-10.263-27.184-1.619-39.772s35.45-9.118,35.45-9.118S107.208,37.1,97.2,36.58s-4.334,5.795,1.51,3.25,14.852-9.934,33.843-.219c10.956,5.612-3.238,16.776-17.4,25.5S54.264,98.131,33.081,82.439c0,0-1.741-2.569,3.81-5.271s1.023-2.983,1.023-2.983-15.826,6.2-5.6,11.456,64.107,6.817,100.191-26.162c0,0,26.965-26.332-18.322-25.188,0,0,12.174-4.87,12.466-7.1s-8.741-5.722-29.217-.463C77.285,31.893,76.505,61.1,87.462,78.97c0,0,.67,1.461,2.435.317,0,0,20.269-38.591,22.047-51.41" transform="translate(6.277 5.212)"/>
      <path id="Path_139" data-name="Path 139" class="cls-1" d="M127.44,36.23h-4.2v-.67h13.075v.67h-4.188V64.071h4.188v.657H123.24v-.657h4.2Z" transform="translate(26.79 7.73)"/>
    </g>
  </g>
</svg>
