<svg xmlns="http://www.w3.org/2000/svg" width="14.912" height="18.105" viewBox="0 0 14.912 18.105">
  <g id="Group_50" data-name="Group 50" transform="translate(0 0.294)">
    <path id="right-arrow_3_" data-name="right-arrow (3)" d="M9.323.17a.443.443,0,0,0-.7,0,.637.637,0,0,0,0,.8l3.538,4.1H.488A.529.529,0,0,0,0,5.638a.536.536,0,0,0,.488.574H12.163L8.625,10.3a.649.649,0,0,0,0,.809.443.443,0,0,0,.7,0L13.7,6.042a.62.62,0,0,0,0-.8Z" transform="translate(1.695 13.844) rotate(-90)" fill="#d5d5d5" stroke="#d5d5d5" stroke-width="0.5"/>
    <path id="Path_3" data-name="Path 3" d="M0,0H14.912" transform="translate(0 17.061)" fill="none" stroke="#d5d5d5" stroke-width="1.5"/>
  </g>
</svg>
